<svg viewBox="0 0 200 200" fill="none" xmlns="http://www.w3.org/2000/svg">
  <style>
    .logo-fg { fill: #1f2326; }
  </style>
  <path fill-rule="evenodd" clip-rule="evenodd" d="M35.576 130.952c2.816 6.485 5.845 9.728 9.088 9.728 1.365 0 3.115-1.536 5.248-4.608 2.133-2.987 4.523-7.04 7.168-12.16 2.645-5.12 5.461-10.88 8.448-17.28a927.952 927.952 0 0 0 8.96-20.096A1663.957 1663.957 0 0 0 83.32 65.8a1272.447 1272.447 0 0 0 7.552-18.688c2.304-5.717 4.096-10.325 5.376-13.824 1.365-3.584 2.048-5.632 2.048-6.144 0-4.096-1.45-6.144-4.352-6.144-1.536 0-3.03.683-4.48 2.048-1.45 1.28-2.816 2.901-4.096 4.864a45.813 45.813 0 0 0-3.072 5.632c-.683 1.45-1.877 4.224-3.584 8.32a2624.46 2624.46 0 0 0-5.888 14.72c-2.304 5.717-4.779 11.861-7.424 18.432-2.56 6.57-5.12 13.184-7.68 19.84-2.56 6.571-4.95 12.757-7.168 18.56a2533.632 2533.632 0 0 0-5.632 14.848c-.768-2.901-1.536-6.741-2.304-11.52-.683-4.779-1.28-10.155-1.792-16.128a569.548 569.548 0 0 1-1.28-18.688 365.334 365.334 0 0 1-.512-19.2c0-2.73.043-5.419.128-8.064.17-2.645.341-5.504.512-8.576 1.707-2.304 2.816-4.224 3.328-5.76.512-1.621.768-3.115.768-4.48 0-1.963-.427-3.584-1.28-4.864-.768-1.28-2.39-1.92-4.864-1.92-2.304 0-4.31.725-6.016 2.176-1.621 1.45-2.901 4.181-3.84 8.192-.853 4.01-1.28 9.813-1.28 17.408 0 18.005.81 33.28 2.432 45.824 1.707 12.459 3.925 21.888 6.656 28.288Zm68.285-1.024c3.84 3.328 10.155 4.992 18.944 4.992 9.643 0 17.792-1.579 24.448-4.736 6.656-3.157 11.691-7.339 15.104-12.544 3.499-5.205 5.248-10.795 5.248-16.768 0-6.485-1.877-11.819-5.632-16-3.669-4.181-8.875-7.552-15.616-10.112a74.645 74.645 0 0 1 2.688-2.304 2892.112 2892.112 0 0 0 15.616-14.208c4.181-3.755 7.893-7.125 11.136-10.112 3.243-3.072 5.803-5.59 7.68-7.552 1.877-2.048 2.816-3.37 2.816-3.968 0-1.195-.256-2.005-.768-2.432-.512-.512-1.067-.768-1.664-.768-.768 0-2.944 1.323-6.528 3.968-3.499 2.645-7.936 6.144-13.312 10.496-5.291 4.352-11.093 9.13-17.408 14.336a314.776 314.776 0 0 1-5.504 4.608 258.608 258.608 0 0 0-5.632 4.48c-2.475-.853-4.821-1.664-7.04-2.432a831.503 831.503 0 0 1-6.016-2.432c.939-2.816 2.731-5.717 5.376-8.704 2.731-2.987 6.059-5.888 9.984-8.704 3.925-2.816 8.149-5.461 12.672-7.936.768.085 1.451.17 2.048.256h1.92c3.243 0 5.333-.47 6.272-1.408 1.024-.939 1.536-2.09 1.536-3.456 0-2.048-.512-3.67-1.536-4.864-.939-1.195-2.517-1.792-4.736-1.792-2.987 0-6.443.853-10.368 2.56-3.925 1.707-7.936 3.925-12.032 6.656a95.524 95.524 0 0 0-11.136 8.832c-3.413 3.157-6.187 6.23-8.32 9.216-2.133 2.987-3.2 5.547-3.2 7.68 0 3.157 1.109 5.888 3.328 8.192 2.219 2.304 5.973 4.48 11.264 6.528-4.949 4.181-9.515 8.363-13.696 12.544-4.096 4.096-7.381 8.192-9.856 12.288-2.475 4.011-3.712 7.936-3.712 11.776 0 5.803 1.877 10.411 5.632 13.824Zm19.968-35.072a506.291 506.291 0 0 1 13.056-11.776c5.973 1.707 10.752 3.968 14.336 6.784 3.584 2.73 5.376 6.101 5.376 10.112 0 3.157-.896 6.229-2.688 9.216-1.707 2.901-4.053 5.547-7.04 7.936-2.987 2.304-6.357 4.139-10.112 5.504a34.342 34.342 0 0 1-11.392 1.92c-5.547 0-9.387-.939-11.52-2.816-2.048-1.963-3.072-4.565-3.072-7.808 0-2.56 1.195-5.461 3.584-8.704 2.389-3.243 5.547-6.699 9.472-10.368Zm34.857-61.45c.021.059.042.117.071.175-.333.167-1.069.396-1.869.396-.73 0-1.387-.673-1.751-1.044l-.097-.1c.167-.5 1.259-.712 2.459-.312.99.33 1.089.61 1.187.885Z" class="logo-fg"/>
  <path d="M17.52 179.192c-.587 0-1.04-.173-1.36-.52a1.605 1.605 0 0 1-.44-1.12c0-.373.16-.72.48-1.04.347-.347.813-.653 1.4-.92a60.434 60.434 0 0 0 3-1.68c.96-.56 1.733-1.16 2.32-1.8.587-.64.88-1.32.88-2.04 0-.613-.2-1.08-.6-1.4-.4-.347-.947-.52-1.64-.52-.4 0-.96.08-1.68.24-.72.133-1.507.293-2.36.48-.827.16-1.64.32-2.44.48-.8.133-1.48.2-2.04.2-1.013 0-1.773-.24-2.28-.72-.507-.507-.76-1.187-.76-2.04 0-.427.253-1.067.76-1.92s1.173-1.8 2-2.84a50.056 50.056 0 0 1 2.8-3.2 45.453 45.453 0 0 1 3.08-2.96c1.067-.907 2.053-1.64 2.96-2.2.933-.56 1.707-.84 2.32-.84.613 0 1.08.2 1.4.6.32.4.48.907.48 1.52 0 .48-.08.893-.24 1.24-.16.32-.493.573-1 .76-.48.187-1.227.293-2.24.32a66.355 66.355 0 0 0-3.32 2.84 36.058 36.058 0 0 0-3.16 3.24c-.933 1.093-1.613 2.147-2.04 3.16.88-.293 1.947-.547 3.2-.76 1.28-.24 2.573-.36 3.88-.36 2.053 0 3.573.467 4.56 1.4 1.013.907 1.52 2.107 1.52 3.6 0 .96-.307 1.96-.92 3-.587 1.013-1.36 1.96-2.32 2.84-.96.88-1.987 1.587-3.08 2.12-1.093.56-2.133.84-3.12.84Z" class="logo-fg"/>
  <path d="M47.252 160.432c0 1.707-.814 3.36-2.44 4.96-1.627 1.6-4.107 3.067-7.44 4.4-.107.667-.16 1.227-.16 1.68 0 1.067.133 1.84.4 2.32.293.48.773.72 1.44.72.986 0 2.093-.307 3.32-.92 1.227-.64 2.493-1.453 3.8-2.44a71.66 71.66 0 0 0 3.84-3.2c1.28-1.12 2.453-2.173 3.52-3.16 1.067-1.013 1.973-1.827 2.72-2.44.746-.64 1.253-.96 1.52-.96.373 0 .68.173.92.52.24.32.36.76.36 1.32 0 .693-.04 1.493-.12 2.4-.08.88-.174 1.813-.28 2.8.693-1.947 1.56-3.64 2.6-5.08 1.066-1.467 2.2-2.68 3.4-3.64 1.2-.96 2.373-1.68 3.52-2.16 1.147-.48 2.133-.72 2.96-.72.773 0 1.346.147 1.72.44.373.293.56.64.56 1.04 0 .373-.174.72-.52 1.04-.32.293-1.067.68-2.24 1.16-1.36.533-2.64 1.16-3.84 1.88-1.174.72-2.267 1.707-3.28 2.96-1.013 1.227-1.92 2.867-2.72 4.92-.8 2.053-1.48 4.693-2.04 7.92-.107.64-.294 1.093-.56 1.36-.267.293-.587.44-.96.44-.267 0-.534-.12-.8-.36-.267-.213-.48-.733-.64-1.56-.16-.853-.24-2.187-.24-4 0-1.227.053-2.56.16-4a77.2 77.2 0 0 1 .56-4.52 116.657 116.657 0 0 1-4.08 4.2 59.825 59.825 0 0 1-4.64 4.04c-1.6 1.227-3.174 2.227-4.72 3-1.547.773-2.987 1.16-4.32 1.16-1.413 0-2.547-.493-3.4-1.48-.853-.987-1.28-2.453-1.28-4.4 0-2.24.293-4.293.88-6.16s1.346-3.48 2.28-4.84c.933-1.387 1.933-2.453 3-3.2 1.066-.747 2.093-1.12 3.08-1.12 1.333 0 2.36.347 3.08 1.04.72.667 1.08 1.547 1.08 2.64Zm-9.24 6.44c.8-.56 1.666-1.187 2.6-1.88.96-.693 1.773-1.4 2.44-2.12.693-.747 1.04-1.427 1.04-2.04 0-.373-.093-.64-.28-.8-.187-.16-.507-.24-.96-.24-.72 0-1.387.36-2 1.08-.613.693-1.16 1.587-1.64 2.68a23.415 23.415 0 0 0-1.2 3.32Z" class="logo-fg"/>
  <path d="M73.758 178.512c-.507 0-.96-.187-1.36-.56-.4-.4-.6-1.013-.6-1.84 0-.587.08-1.4.24-2.44a58.44 58.44 0 0 1 .64-3.48c.267-1.253.547-2.493.84-3.72.32-1.253.64-2.373.96-3.36.32-.987.6-1.72.84-2.2.213-.373.413-.613.6-.72.213-.107.413-.16.6-.16.373 0 .693.12.96.36.293.24.44.707.44 1.4 0 .4-.08 1.067-.24 2-.133.907-.32 1.973-.56 3.2-.213 1.2-.453 2.44-.72 3.72-.24 1.253-.48 2.453-.72 3.6a85.191 85.191 0 0 0-.56 2.88c-.107.427-.293.76-.56 1-.24.213-.507.32-.8.32Zm3.92-22.12c-.614 0-1.2-.187-1.76-.56-.534-.373-.8-.973-.8-1.8 0-.693.16-1.253.48-1.68a3.03 3.03 0 0 1 1.2-.92c.48-.213.893-.32 1.24-.32s.733.08 1.16.24c.453.133.84.4 1.16.8.32.373.48.933.48 1.68 0 .507-.173.96-.52 1.36a3.655 3.655 0 0 1-1.28.88c-.48.213-.933.32-1.36.32Z" class="logo-fg"/>
  <path d="M85.32 179.352c-1.014 0-1.854-.467-2.52-1.4-.64-.96-.96-2.2-.96-3.72 0-1.413.346-2.813 1.04-4.2.72-1.387 1.666-2.72 2.84-4a30.086 30.086 0 0 1 3.84-3.52 34.973 34.973 0 0 1 4.16-2.84c1.413-.8 2.706-1.427 3.88-1.88 1.173-.453 2.106-.68 2.8-.68.373 0 .68.08.92.24.24.133.36.387.36.76 0 .24-.094.467-.28.68h.08c.586 0 .88.347.88 1.04 0 .24-.094.733-.28 1.48-.187.72-.4 1.627-.64 2.72a47.972 47.972 0 0 0-.64 3.64 28.206 28.206 0 0 0-.28 4c0 1.147.44 1.72 1.32 1.72.986 0 1.986-.227 3-.68 1.013-.453 2-1 2.96-1.64a48.86 48.86 0 0 0 2.64-1.96c.8-.667 1.48-1.227 2.04-1.68.56-.453.96-.68 1.2-.68.213 0 .4.067.56.2.16.133.24.347.24.64 0 .267-.267.747-.8 1.44-.534.693-1.24 1.48-2.12 2.36a28.47 28.47 0 0 1-2.96 2.56 18.551 18.551 0 0 1-3.36 2.04c-1.147.533-2.24.8-3.28.8-.8 0-1.534-.24-2.2-.72-.64-.507-1.16-1.36-1.56-2.56-.374-1.2-.56-2.853-.56-4.96v-1a53.802 53.802 0 0 1-4.12 5.92c-1.414 1.787-2.827 3.213-4.24 4.28-1.387 1.067-2.707 1.6-3.96 1.6Zm14.32-19.36c-.134.053-.32.133-.56.24a34.536 34.536 0 0 0-3.84 2.08 40.943 40.943 0 0 0-3.84 2.76 31.374 31.374 0 0 0-3.32 3.16c-.987 1.093-1.774 2.2-2.36 3.32-.587 1.12-.88 2.213-.88 3.28 0 .347.066.613.2.8.16.187.426.28.8.28.533 0 1.226-.333 2.08-1 .853-.693 1.786-1.6 2.8-2.72 1.04-1.12 2.08-2.36 3.12-3.72a83.785 83.785 0 0 0 2.96-4.12 64.368 64.368 0 0 0 2.48-3.84c.106-.187.226-.36.36-.52Z" class="logo-fg"/>
  <path d="M119.297 179.912c-2.054 0-3.667-.667-4.84-2-1.147-1.36-1.72-3.253-1.72-5.68 0-1.493.2-3.24.6-5.24a92.97 92.97 0 0 1 1.6-6.4 139.183 139.183 0 0 1 2.16-6.72c.773-2.213 1.52-4.267 2.24-6.16.746-1.92 1.4-3.52 1.96-4.8.32-.72.773-1.08 1.36-1.08.8 0 1.2.493 1.2 1.48 0 .32-.147.973-.44 1.96-.294.987-.68 2.213-1.16 3.68-.48 1.44-1 3.04-1.56 4.8-.56 1.76-1.134 3.573-1.72 5.44-.56 1.84-1.08 3.667-1.56 5.48a66.356 66.356 0 0 0-1.16 5.04c-.294 1.573-.44 2.92-.44 4.04 0 .72.186 1.293.56 1.72.4.4.933.6 1.6.6 1.226 0 2.453-.24 3.68-.72a22.947 22.947 0 0 0 3.6-1.84 48.483 48.483 0 0 0 3.12-2.2c.96-.747 1.773-1.36 2.44-1.84.666-.507 1.133-.76 1.4-.76.586 0 .88.32.88.96 0 .213-.214.613-.64 1.2-.427.56-1 1.227-1.72 2-.72.773-1.56 1.573-2.52 2.4-.934.8-1.92 1.56-2.96 2.28a16.718 16.718 0 0 1-3.08 1.68c-1.014.453-1.974.68-2.88.68Z" class="logo-fg"/>
  <path d="M133.094 178.512c-.507 0-.96-.187-1.36-.56-.4-.4-.6-1.013-.6-1.84 0-.587.08-1.4.24-2.44a58.2 58.2 0 0 1 .64-3.48c.266-1.253.546-2.493.84-3.72.32-1.253.64-2.373.96-3.36.32-.987.6-1.72.84-2.2.213-.373.413-.613.6-.72.213-.107.413-.16.6-.16.373 0 .693.12.96.36.293.24.44.707.44 1.4 0 .4-.08 1.067-.24 2-.134.907-.32 1.973-.56 3.2-.214 1.2-.454 2.44-.72 3.72-.24 1.253-.48 2.453-.72 3.6a84.446 84.446 0 0 0-.56 2.88c-.107.427-.294.76-.56 1-.24.213-.507.32-.8.32Zm3.92-22.12c-.614 0-1.2-.187-1.76-.56-.534-.373-.8-.973-.8-1.8 0-.693.16-1.253.48-1.68a3.02 3.02 0 0 1 1.2-.92c.48-.213.893-.32 1.24-.32.346 0 .733.08 1.16.24.453.133.84.4 1.16.8.32.373.48.933.48 1.68 0 .507-.174.96-.52 1.36a3.664 3.664 0 0 1-1.28.88c-.48.213-.934.32-1.36.32Z" class="logo-fg"/>
  <path d="M157.825 178.752c-.24 0-.72-.013-1.44-.04-.693-.027-1.52-.067-2.48-.12-.96-.053-1.96-.107-3-.16a128.337 128.337 0 0 0-2.88-.12c-.88-.027-1.613-.04-2.2-.04-.72 0-1.32-.24-1.8-.72-.453-.48-.68-1.147-.68-2 0-.56.253-1.28.76-2.16.507-.88 1.187-1.853 2.04-2.92a59.736 59.736 0 0 1 2.84-3.36 129.235 129.235 0 0 1 3.24-3.36 107.022 107.022 0 0 1 3.16-3.04 45.72 45.72 0 0 1 2.64-2.28c-1.76.213-3.48.493-5.16.84-1.68.32-3.147.613-4.4.88-1.227.267-2.053.4-2.48.4-.533 0-.96-.147-1.28-.44-.32-.32-.48-.747-.48-1.28 0-.293.32-.587.96-.88.667-.293 1.547-.573 2.64-.84a37.772 37.772 0 0 1 3.6-.68 50.897 50.897 0 0 1 4.04-.48c1.36-.107 2.627-.16 3.8-.16.8 0 1.44.24 1.92.72.507.48.76.987.76 1.52 0 .213-.307.693-.92 1.44a63.19 63.19 0 0 1-2.4 2.72 289.228 289.228 0 0 1-3.24 3.44 218.47 218.47 0 0 0-3.44 3.68c-1.12 1.2-2.12 2.32-3 3.36-.88 1.013-1.52 1.853-1.92 2.52a260.6 260.6 0 0 1 2.56-.08c.987-.027 2.013-.053 3.08-.08 1.067-.053 2.08-.093 3.04-.12.96-.053 1.773-.093 2.44-.12a44.56 44.56 0 0 1 1.36-.04c1.067 0 1.6.44 1.6 1.32 0 .667-.307 1.28-.92 1.84s-1.4.84-2.36.84Z" class="logo-fg"/>
  <path d="M181.865 161.072c0 .853-.266 1.693-.8 2.52-.533.8-1.24 1.573-2.12 2.32-.88.72-1.853 1.4-2.92 2.04-1.066.64-2.133 1.2-3.2 1.68a31.22 31.22 0 0 1-2.92 1.16c-.213 1.04-.32 1.96-.32 2.76 0 .507.12.867.36 1.08.24.213.614.32 1.12.32 1.12 0 2.307-.2 3.56-.6a28.26 28.26 0 0 0 3.84-1.56c1.307-.64 2.56-1.32 3.76-2.04 1.2-.72 2.294-1.4 3.28-2.04 1.014-.64 1.854-1.16 2.52-1.56.667-.4 1.107-.6 1.32-.6.32 0 .56.107.72.32.187.187.28.413.28.68 0 .213-.333.627-1 1.24-.64.613-1.506 1.333-2.6 2.16-1.093.8-2.32 1.627-3.68 2.48a54.611 54.611 0 0 1-4.24 2.4 29.173 29.173 0 0 1-4.2 1.8c-1.333.453-2.533.68-3.6.68-1.386 0-2.466-.52-3.24-1.56-.773-1.04-1.16-2.653-1.16-4.84 0-1.467.187-2.947.56-4.44.4-1.493.934-2.92 1.6-4.28.694-1.387 1.454-2.613 2.28-3.68.854-1.093 1.747-1.947 2.68-2.56.934-.64 1.84-.96 2.72-.96 1.68 0 3 .467 3.96 1.4.96.933 1.44 2.16 1.44 3.68Zm-11.12 6.64c.827-.507 1.68-1.04 2.56-1.6.88-.56 1.694-1.133 2.44-1.72.747-.587 1.347-1.2 1.8-1.84.48-.667.72-1.347.72-2.04 0-.987-.533-1.48-1.6-1.48-.666 0-1.373.427-2.12 1.28-.72.827-1.413 1.907-2.08 3.24a31.785 31.785 0 0 0-1.72 4.16Z" class="logo-fg"/>
  <path d="M165.64 41.05c-1.649.001-4.167-.666-5-1.5l.5-.5c.667.668 3.2 1.4 4 1 .8-.4 1.5-1 3-1-.5.5-1.723.334-2 1.5.895.895 1 2 .5 2.5.287-1-.5-2-1-2Z" class="logo-fg"/>
</svg>
